<?xml version="1.0" encoding="UTF-8" standalone="no"?>
<svg xmlns="http://www.w3.org/2000/svg" viewBox="0 0 240 240" width="240" height="240">
  <!-- Chinchilla body -->
  <ellipse cx="120" cy="140" rx="50" ry="40" fill="#C5C5C5" stroke="#8A8A8A" stroke-width="2"/>
  
  <!-- Fluffy fur texture -->
  <ellipse cx="90" cy="130" rx="15" ry="20" fill="#DEDEDE" stroke-width="0"/>
  <ellipse cx="110" cy="155" rx="15" ry="12" fill="#DEDEDE" stroke-width="0"/>
  <ellipse cx="140" cy="145" rx="18" ry="15" fill="#DEDEDE" stroke-width="0"/>
  <ellipse cx="155" cy="135" rx="10" ry="12" fill="#DEDEDE" stroke-width="0"/>
  <ellipse cx="130" cy="125" rx="12" ry="10" fill="#DEDEDE" stroke-width="0"/>
  
  <!-- Head -->
  <circle cx="75" cy="120" r="30" fill="#C5C5C5" stroke="#8A8A8A" stroke-width="2"/>
  
  <!-- Fur texture on head -->
  <ellipse cx="65" cy="110" rx="10" ry="12" fill="#DEDEDE" stroke-width="0"/>
  <ellipse cx="85" cy="105" rx="12" ry="8" fill="#DEDEDE" stroke-width="0"/>
  
  <!-- Ears -->
  <ellipse cx="60" cy="95" rx="8" ry="12" fill="#A9A9A9" stroke="#8A8A8A" stroke-width="1.5"/>
  <ellipse cx="90" cy="95" rx="8" ry="12" fill="#A9A9A9" stroke="#8A8A8A" stroke-width="1.5"/>
  <ellipse cx="60" cy="95" rx="4" ry="7" fill="#C5C5C5" stroke-width="0"/>
  <ellipse cx="90" cy="95" rx="4" ry="7" fill="#C5C5C5" stroke-width="0"/>
  
  <!-- Eyes -->
  <ellipse cx="60" cy="120" rx="7" ry="8" fill="#333"/>
  <ellipse cx="85" cy="120" rx="7" ry="8" fill="#333"/>
  <circle cx="58" cy="118" r="2" fill="#fff"/>
  <circle cx="83" cy="118" r="2" fill="#fff"/>
  
  <!-- Nose and mouth -->
  <ellipse cx="72" cy="130" rx="8" ry="5" fill="#FF9E9E"/>
  <path d="M65 135 Q 72 140 79 135" fill="none" stroke="#8A8A8A" stroke-width="1"/>
  
  <!-- Whiskers -->
  <line x1="65" y1="130" x2="35" y2="125" stroke="#8A8A8A" stroke-width="0.8"/>
  <line x1="65" y1="132" x2="35" y2="132" stroke="#8A8A8A" stroke-width="0.8"/>
  <line x1="65" y1="134" x2="35" y2="139" stroke="#8A8A8A" stroke-width="0.8"/>
  
  <line x1="80" y1="130" x2="105" y2="125" stroke="#8A8A8A" stroke-width="0.8"/>
  <line x1="80" y1="132" x2="105" y2="132" stroke="#8A8A8A" stroke-width="0.8"/>
  <line x1="80" y1="134" x2="105" y2="139" stroke="#8A8A8A" stroke-width="0.8"/>
  
  <!-- Fluffy tail -->
  <ellipse cx="170" cy="130" rx="15" ry="20" fill="#C5C5C5" stroke="#8A8A8A" stroke-width="1.5" transform="rotate(-15, 170, 130)"/>
  <ellipse cx="170" cy="130" rx="10" ry="15" fill="#DEDEDE" stroke-width="0" transform="rotate(-15, 170, 130)"/>
  
  <!-- Feet -->
  <ellipse cx="90" cy="175" rx="12" ry="6" fill="#A9A9A9" stroke="#8A8A8A" stroke-width="1.5"/>
  <ellipse cx="130" cy="175" rx="12" ry="6" fill="#A9A9A9" stroke="#8A8A8A" stroke-width="1.5"/>
  <ellipse cx="150" cy="165" rx="10" ry="5" fill="#A9A9A9" stroke="#8A8A8A" stroke-width="1.5"/>
</svg> 