<?xml version="1.0" encoding="UTF-8" standalone="no"?>
<svg xmlns="http://www.w3.org/2000/svg" viewBox="0 0 240 240" width="240" height="240">
  <!-- Rabbit body -->
  <ellipse cx="120" cy="140" rx="60" ry="50" fill="#f5f0f0" stroke="#333" stroke-width="2"/>
  
  <!-- Rabbit head -->
  <circle cx="120" cy="80" r="40" fill="#f5f0f0" stroke="#333" stroke-width="2"/>
  
  <!-- Ears -->
  <path d="M90 65 Q 80 20 100 40" fill="#f5f0f0" stroke="#333" stroke-width="2"/>
  <path d="M150 65 Q 160 20 140 40" fill="#f5f0f0" stroke="#333" stroke-width="2"/>
  <path d="M93 63 Q 85 25 103 42" fill="#ffcce0" stroke-width="0"/>
  <path d="M147 63 Q 155 25 137 42" fill="#ffcce0" stroke-width="0"/>
  
  <!-- Eyes -->
  <circle cx="105" cy="75" r="5" fill="#333"/>
  <circle cx="135" cy="75" r="5" fill="#333"/>
  <circle cx="103" cy="74" r="2" fill="#fff"/>
  <circle cx="133" cy="74" r="2" fill="#fff"/>
  
  <!-- Nose -->
  <ellipse cx="120" cy="90" rx="7" ry="5" fill="#ffacac"/>
  
  <!-- Mouth -->
  <path d="M110 100 Q 120 110 130 100" fill="none" stroke="#333" stroke-width="1.5"/>
  
  <!-- Whiskers -->
  <line x1="90" y1="90" x2="60" y2="85" stroke="#555" stroke-width="1"/>
  <line x1="90" y1="95" x2="60" y2="95" stroke="#555" stroke-width="1"/>
  <line x1="90" y1="100" x2="60" y2="105" stroke="#555" stroke-width="1"/>
  <line x1="150" y1="90" x2="180" y2="85" stroke="#555" stroke-width="1"/>
  <line x1="150" y1="95" x2="180" y2="95" stroke="#555" stroke-width="1"/>
  <line x1="150" y1="100" x2="180" y2="105" stroke="#555" stroke-width="1"/>
  
  <!-- Front paws -->
  <ellipse cx="90" cy="170" rx="15" ry="10" fill="#f5f0f0" stroke="#333" stroke-width="1.5"/>
  <ellipse cx="150" cy="170" rx="15" ry="10" fill="#f5f0f0" stroke="#333" stroke-width="1.5"/>
</svg> 