<?xml version="1.0" encoding="UTF-8" standalone="no"?>
<svg xmlns="http://www.w3.org/2000/svg" viewBox="0 0 240 240" width="240" height="240">
  <!-- Mouse body -->
  <ellipse cx="120" cy="140" rx="40" ry="30" fill="#BFBFBF" stroke="#999999" stroke-width="2"/>
  
  <!-- Head -->
  <circle cx="75" cy="130" r="25" fill="#BFBFBF" stroke="#999999" stroke-width="2"/>
  
  <!-- Ears -->
  <circle cx="60" cy="110" r="12" fill="#FFC0CB" stroke="#999999" stroke-width="1.5"/>
  <circle cx="85" cy="108" r="12" fill="#FFC0CB" stroke="#999999" stroke-width="1.5"/>
  <circle cx="60" cy="110" r="8" fill="#FFD7DA" stroke-width="0"/>
  <circle cx="85" cy="108" r="8" fill="#FFD7DA" stroke-width="0"/>
  
  <!-- Eyes -->
  <circle cx="65" cy="130" r="4" fill="#333"/>
  <circle cx="85" cy="130" r="4" fill="#333"/>
  <circle cx="64" cy="129" r="1" fill="#fff"/>
  <circle cx="84" cy="129" r="1" fill="#fff"/>
  
  <!-- Nose -->
  <ellipse cx="75" cy="138" rx="4" ry="3" fill="#FF9E9E"/>
  
  <!-- Whiskers -->
  <line x1="70" y1="138" x2="40" y2="135" stroke="#999999" stroke-width="0.8"/>
  <line x1="70" y1="140" x2="40" y2="140" stroke="#999999" stroke-width="0.8"/>
  <line x1="70" y1="142" x2="40" y2="145" stroke="#999999" stroke-width="0.8"/>
  
  <line x1="80" y1="138" x2="105" y2="135" stroke="#999999" stroke-width="0.8"/>
  <line x1="80" y1="140" x2="105" y2="140" stroke="#999999" stroke-width="0.8"/>
  <line x1="80" y1="142" x2="105" y2="145" stroke="#999999" stroke-width="0.8"/>
  
  <!-- Feet -->
  <ellipse cx="100" cy="165" rx="10" ry="5" fill="#DFDFDF" stroke="#999999" stroke-width="1.5"/>
  <ellipse cx="130" cy="165" rx="10" ry="5" fill="#DFDFDF" stroke="#999999" stroke-width="1.5"/>
  <ellipse cx="145" cy="155" rx="8" ry="4" fill="#DFDFDF" stroke="#999999" stroke-width="1.5"/>
  
  <!-- Tail -->
  <path d="M160 140 Q 180 120 190 150 Q 200 180 160 170" fill="#DFDFDF" stroke="#999999" stroke-width="1.5" fill-opacity="0.8"/>
</svg> 